<?xml version="1.0" standalone="no"?>
<!DOCTYPE svg PUBLIC "-//W3C//DTD SVG 20010904//EN"
 "http://www.w3.org/TR/2001/REC-SVG-20010904/DTD/svg10.dtd">
<svg version="1.0" xmlns="http://www.w3.org/2000/svg"
 width="603.000000pt" height="601.000000pt" viewBox="0 0 603.000000 601.000000"
 preserveAspectRatio="xMidYMid meet">

<g transform="translate(0.000000,601.000000) scale(0.100000,-0.100000)"
fill="#000000" stroke="none">
<path d="M0 3005 l0 -3005 3015 0 3015 0 0 3005 0 3005 -3015 0 -3015 0 0
-3005z m2840 1730 l0 -335 -925 0 -925 0 0 335 0 335 925 0 925 0 0 -335z
m2200 -650 l0 -304 -567 -3 c-638 -4 -616 -1 -733 -80 -73 -48 -141 -131 -173
-208 l-22 -55 -3 -1222 -2 -1223 -345 0 -345 0 0 1700 0 1700 1095 0 1095 0 0
-305z"/>
</g>
</svg>
